<svg width="177" height="73" fill="none" xmlns="http://www.w3.org/2000/svg"><path d="m69.56 39.62-3.54 2.52A9.03 9.03 0 0 0 68 44.96c.86.82 1.87 1.48 3.03 1.98 1.18.48 2.45.72 3.81.72 1 0 1.96-.15 2.88-.45.92-.28 1.75-.7 2.49-1.26.76-.56 1.35-1.25 1.77-2.07.44-.82.66-1.77.66-2.85 0-.88-.15-1.66-.45-2.34-.28-.7-.67-1.31-1.17-1.83-.48-.52-1.05-.96-1.71-1.32-.64-.38-1.33-.71-2.07-.99-.72-.24-1.37-.47-1.95-.69-.58-.24-1.07-.47-1.47-.69-.38-.24-.68-.5-.9-.78-.2-.3-.3-.64-.3-1.02 0-.32.08-.6.24-.84.16-.24.4-.42.72-.54.34-.14.76-.21 1.26-.21.52 0 1.01.1 1.47.3.48.18.92.46 1.32.84.4.38.74.82 1.02 1.32l3.87-2.16c-.36-.72-.88-1.43-1.56-2.13s-1.53-1.28-2.55-1.74c-1.02-.46-2.24-.69-3.66-.69-1.34 0-2.57.24-3.69.72s-2.01 1.17-2.67 2.07c-.64.88-.96 1.95-.96 3.21 0 1.04.19 1.92.57 2.64.4.7.89 1.31 1.47 1.83.58.5 1.19.91 1.83 1.23.64.32 1.22.58 1.74.78 1.02.4 1.83.75 2.43 1.05.62.28 1.06.59 1.32.93.28.34.42.77.42 1.29 0 .42-.11.79-.33 1.11-.2.3-.49.54-.87.72-.38.16-.82.24-1.32.24-.7 0-1.37-.15-2.01-.45-.62-.3-1.19-.73-1.71-1.29a10 10 0 0 1-1.41-1.98ZM86.03 26v21h5.25V26h-5.25Zm12.36 0-8.61 9.99L98.66 47h6.149l-8.97-11.16 8.52-9.84h-5.97Zm11.291 10.5c0-.94.14-1.79.42-2.55.28-.76.68-1.42 1.2-1.98.54-.56 1.17-1 1.89-1.32.74-.32 1.56-.48 2.46-.48.9 0 1.71.16 2.43.48.74.32 1.37.76 1.89 1.32.52.56.91 1.23 1.17 2.01.26.76.39 1.6.39 2.52 0 .92-.14 1.77-.42 2.55a5.84 5.84 0 0 1-1.2 1.98c-.52.56-1.14 1-1.86 1.32-.72.32-1.52.48-2.4.48-.9 0-1.72-.16-2.46-.48-.72-.32-1.35-.76-1.89-1.32-.52-.56-.92-1.23-1.2-2.01-.28-.78-.42-1.62-.42-2.52Zm-5.34 0c0 1.62.27 3.11.81 4.47.54 1.36 1.32 2.54 2.34 3.54 1.02 1 2.22 1.78 3.6 2.34 1.38.54 2.9.81 4.56.81 1.64 0 3.14-.27 4.5-.81 1.38-.56 2.58-1.34 3.6-2.34 1.02-1 1.81-2.18 2.37-3.54.56-1.36.84-2.85.84-4.47 0-1.62-.29-3.1-.87-4.44a10.54 10.54 0 0 0-2.4-3.51c-1-.98-2.19-1.73-3.57-2.25-1.36-.52-2.85-.78-4.47-.78-1.62 0-3.12.26-4.5.78a10.45 10.45 0 0 0-3.6 2.25c-1.02.98-1.81 2.15-2.37 3.51-.56 1.34-.84 2.82-.84 4.44ZM130.18 26v21h13.5v-4.38h-8.46V26h-5.04Zm20.058 16.95h11.1l-.36-3.87h-10.41l-.33 3.87Zm5.52-9.21 2.94 6.75-.21 1.35 2.49 5.16h5.79l-11.01-22.32L144.688 47h5.73l2.58-5.34-.21-1.17 2.97-6.75Z" fill="#090761"/><g clip-path="url(#a)" fill-rule="evenodd" clip-rule="evenodd" fill="#FE805D"><path d="m29.82 68.629-2.256 4.113-2.252-4.103a20 20 0 0 0 2.19.136c.763 0 1.545-.055 2.318-.146Zm6.311-11.485-5.254 9.565c-.188.035-.386.065-.574.09-.935.137-1.886.223-2.806.223-.92 0-1.875-.086-2.81-.222-.142-.02-.284-.05-.432-.071l-5.25-9.56c.29.035.585.055.916.055 2.256 0 3.455-.93 4.644-1.864.808-.622 1.616-1.253 2.922-1.253s2.11.631 2.922 1.253c1.19.935 2.389 1.864 4.645 1.864.391 0 .742-.025 1.077-.08Z"/><path d="M27.503 22.46h-.016c-6.118.005-11.678 2.496-15.707 6.503-4.015 3.997-6.51 9.51-6.52 15.584v.05c.005 6.079 2.51 11.612 6.54 15.619a22.376 22.376 0 0 0 9.106 5.482l-3.16-5.902a18.196 18.196 0 0 1-3.075-2.45c-3.288-3.264-5.33-7.782-5.336-12.749v-.05c.005-4.962 2.053-9.47 5.331-12.734 3.283-3.269 7.82-5.3 12.821-5.3H27.538c4.98.005 9.508 2.036 12.79 5.3h.011c3.288 3.264 5.326 7.782 5.33 12.754v.05c-.01 4.957-2.042 9.46-5.33 12.729a18.444 18.444 0 0 1-2.785 2.263l-3.211 6.008a22.373 22.373 0 0 0 8.882-5.416c4.02-3.997 6.515-9.515 6.52-15.579v-.05c-.005-6.084-2.505-11.612-6.535-15.619l.005-.005a22.246 22.246 0 0 0-15.677-6.483"/><path d="M37.96 23.092c-6.976-3.593-13.939-3.38-20.926 0v-9.934c5.036-5.937 16.313-5.66 20.927 0v9.934Zm6.378-7.251V6.013a.673.673 0 0 0-.594-.667l-5.102-.642L27.502 0 0 11.612l15.21 3.92V12.9l.208-.566a12.51 12.51 0 0 1 1.703-1.652c2.891-2.324 6.774-3.436 10.595-3.4 3.826.04 7.628 1.237 10.341 3.511.56.47 1.078.996 1.545 1.561l.198.546v2.633l3.192-.824v1.132c-.31.217-.519.57-.519.98 0 .44.244.819.595 1.026-.183.09-.36.217-.518.389l-.412 3.866a2.42 2.42 0 0 0 1.525.535 2.48 2.48 0 0 0 1.534-.535l-.411-3.866a1.681 1.681 0 0 0-.519-.39c.356-.206.59-.585.59-1.025a1.163 1.163 0 0 0-.519-.98ZM55 11.61l-9.305-3.93v6.326L55 11.612ZM18.3 51.878v-27.28h6.143v26.275c-.411.237-.787.505-1.163.778-.732.526-1.464 1.056-2.648 1.056-1.016 0-1.692-.389-2.333-.829Zm12.252.354V25.957h6.143v27.28c-.635.44-1.316.834-2.337.834-1.18 0-1.91-.53-2.643-1.06-.376-.269-.747-.541-1.163-.779Z"/></g><defs><clipPath id="a"><path fill="#fff" transform="matrix(-1 0 0 1 55 0)" d="M0 0h55v72.742H0z"/></clipPath></defs></svg>